<?xml version="1.0" encoding="UTF-8" standalone="no" ?>
<!DOCTYPE svg PUBLIC "-//W3C//DTD SVG 1.1//EN" "http://www.w3.org/Graphics/SVG/1.1/DTD/svg11.dtd">
<svg xmlns="http://www.w3.org/2000/svg" xmlns:xlink="http://www.w3.org/1999/xlink" version="1.1" width="150" height="150" viewBox="0 0 150 150" xml:space="preserve">
<desc>Created with Fabric.js 5.2.4</desc>
<defs>
</defs>
<rect x="0" y="0" width="100%" height="100%" fill="transparent"></rect>
<g transform="matrix(1 0 0 1 75 75)" id="c8c66a57-fead-4c26-a8e4-a02d724b7333"  >
<rect style="stroke: none; stroke-width: 1; stroke-dasharray: none; stroke-linecap: butt; stroke-dashoffset: 0; stroke-linejoin: miter; stroke-miterlimit: 4; fill: rgb(255,255,255); fill-rule: nonzero; opacity: 1; visibility: hidden;" vector-effect="non-scaling-stroke"  x="-75" y="-75" rx="0" ry="0" width="150" height="150" />
</g>
<g transform="matrix(0 0 0 0 0 0)" id="cb222098-eb64-4356-aae4-7494b7e3fa96"  >
</g>
<g transform="matrix(1.4 0 0 1.4 75 75)" id="c9f0377d-a3e7-4b8b-9251-5752955a53d7"  >
<rect style="stroke: rgb(238,232,232); stroke-width: 0; stroke-dasharray: none; stroke-linecap: butt; stroke-dashoffset: 0; stroke-linejoin: miter; stroke-miterlimit: 4; fill: rgb(255,255,255); fill-rule: nonzero; opacity: 1;" vector-effect="non-scaling-stroke"  x="-33.0835" y="-33.0835" rx="0" ry="0" width="66.167" height="66.167" />
</g>
<g transform="matrix(0.32 0 0 0.32 75 75)" id="82b8e976-19bc-41bc-9379-a0ab5b892d0e"  >
<path style="stroke: rgb(0,0,0); stroke-width: 0; stroke-dasharray: none; stroke-linecap: butt; stroke-dashoffset: 0; stroke-linejoin: miter; stroke-miterlimit: 4; fill: rgb(38,77,228); fill-rule: nonzero; opacity: 1;" vector-effect="non-scaling-stroke"  transform=" translate(-192, -256)" d="M 0 32 L 34.9 427.8 L 192 480 L 349.1 427.8 L 384 32 L 0 32 z M 313.1 112 L 308.3 159.3 L 193 208.6 L 192.7 208.7 L 304.2 208.7 L 291.4 355.29999999999995 L 193.2 383.99999999999994 L 94.39999999999999 354.79999999999995 L 87.99999999999999 280.9 L 136.89999999999998 280.9 L 140.09999999999997 319.2 L 192.69999999999996 332.5 L 247.39999999999998 317.1 L 251.09999999999997 255.50000000000003 L 84.79999999999995 255.00000000000003 L 84.79999999999995 254.90000000000003 L 84.59999999999995 255.00000000000003 L 80.99999999999996 208.70000000000005 L 193.1 162 L 199.6 159.3 L 76.7 159.3 L 70.9 112 L 313.1 112 z" stroke-linecap="round" />
</g>
</svg>