<?xml version="1.0" encoding="UTF-8" standalone="no" ?>
<!DOCTYPE svg PUBLIC "-//W3C//DTD SVG 1.1//EN" "http://www.w3.org/Graphics/SVG/1.1/DTD/svg11.dtd">
<svg xmlns="http://www.w3.org/2000/svg" xmlns:xlink="http://www.w3.org/1999/xlink" version="1.1" width="150" height="150" viewBox="0 0 150 150" xml:space="preserve">
<desc>Created with Fabric.js 5.2.4</desc>
<defs>
</defs>
<rect x="0" y="0" width="100%" height="100%" fill="transparent"></rect>
<g transform="matrix(1 0 0 1 75 75)" id="3d62b7d5-f197-4b39-856e-9414bb578470"  >
<rect style="stroke: none; stroke-width: 1; stroke-dasharray: none; stroke-linecap: butt; stroke-dashoffset: 0; stroke-linejoin: miter; stroke-miterlimit: 4; fill: rgb(255,255,255); fill-rule: nonzero; opacity: 1; visibility: hidden;" vector-effect="non-scaling-stroke"  x="-75" y="-75" rx="0" ry="0" width="150" height="150" />
</g>
<g transform="matrix(Infinity NaN NaN Infinity 0 0)" id="d0193dd7-8464-44ef-8f1b-d5cc6278bd35"  >
</g>
<g transform="matrix(1.9 0 0 1.9 75 75)" id="0eb4fd63-3bcb-496a-8662-75cd44c7e845"  >
<circle style="stroke: rgb(255,255,255); stroke-width: 0; stroke-dasharray: none; stroke-linecap: butt; stroke-dashoffset: 0; stroke-linejoin: miter; stroke-miterlimit: 4; fill: rgb(244,244,244); fill-rule: nonzero; opacity: 1;" vector-effect="non-scaling-stroke"  cx="0" cy="0" r="35" />
</g>
<g transform="matrix(0.28 0 0 0.28 75 75)"  >
<path style="stroke: rgb(0,0,0); stroke-width: 0; stroke-dasharray: none; stroke-linecap: butt; stroke-dashoffset: 0; stroke-linejoin: miter; stroke-miterlimit: 4; fill: rgb(0,0,0); fill-rule: nonzero; opacity: 1;" vector-effect="non-scaling-stroke"  transform=" translate(-256, -256)" d="M 61.7 169.4 L 163.2 447.4 C 92.2 413 43.3 340.2 43.3 256 C 43.3 225.1 49.9 195.9 61.699999999999996 169.4 z M 399.59999999999997 245.3 C 399.59999999999997 219 390.2 200.8 382.09999999999997 186.60000000000002 C 371.29999999999995 169.10000000000002 361.2 154.20000000000002 361.2 136.70000000000002 C 361.2 117.10000000000002 376 98.90000000000002 396.9 98.90000000000002 C 397.79999999999995 98.90000000000002 398.7 99.00000000000001 399.7 99.10000000000002 C 361.8 64.40000000000002 311.4 43.200000000000024 256 43.200000000000024 C 181.7 43.200000000000024 116.30000000000001 81.30000000000003 78.19999999999999 139.10000000000002 C 83.19999999999999 139.3 87.89999999999999 139.40000000000003 91.89999999999999 139.40000000000003 C 114.1 139.40000000000003 148.6 136.70000000000005 148.6 136.70000000000005 C 160.1 136.00000000000006 161.4 152.90000000000003 150 154.20000000000005 C 150 154.20000000000005 138.5 155.50000000000006 125.7 156.20000000000005 L 203.2 386.6 L 249.8 247 L 216.70000000000002 156.2 C 205.20000000000002 155.5 194.4 154.2 194.4 154.2 C 182.9 153.5 184.3 136 195.70000000000002 136.7 C 195.70000000000002 136.7 230.8 139.39999999999998 251.70000000000002 139.39999999999998 C 273.90000000000003 139.39999999999998 308.40000000000003 136.7 308.40000000000003 136.7 C 319.90000000000003 136 321.20000000000005 152.89999999999998 309.8 154.2 C 309.8 154.2 298.3 155.5 285.5 156.2 L 362.4 384.9 L 383.59999999999997 314 C 392.59999999999997 284.6 399.59999999999997 263.5 399.59999999999997 245.3 z M 259.69999999999993 274.6 L 195.89999999999992 460.1 C 214.99999999999991 465.70000000000005 235.0999999999999 468.8 255.99999999999991 468.8 C 280.7999999999999 468.8 304.4999999999999 464.5 326.5999999999999 456.7 C 325.9999999999999 455.8 325.4999999999999 454.8 325.0999999999999 453.8 L 259.69999999999993 274.6 z M 442.69999999999993 153.90000000000003 C 443.5999999999999 160.70000000000005 444.0999999999999 167.90000000000003 444.0999999999999 175.80000000000004 C 444.0999999999999 197.40000000000003 440.0999999999999 221.60000000000002 427.8999999999999 252.00000000000006 L 362.8999999999999 439.9000000000001 C 426.2 403 468.7 334.5 468.7 256 C 468.7 219 459.3 184.2 442.7 153.9 z M 504 256 C 504 392.8 392.7 504 256 504 C 119.2 504 8 392.7 8 256 C 8 119.2 119.2 8 256 8 C 392.7 8 504 119.2 504 256 z M 492.6 256 C 492.6 125.5 386.40000000000003 19.400000000000006 256 19.400000000000006 C 125.5 19.4 19.4 125.5 19.4 256 C 19.4 386.5 125.6 492.6 256 492.6 C 386.5 492.6 492.6 386.5 492.6 256 z" stroke-linecap="round" />
</g>
</svg>